<svg width="130" height="46" viewBox="0 0 130 46" fill="none" xmlns="http://www.w3.org/2000/svg">
<path d="M30.9336 29.451C36.0013 29.451 40.1095 25.3817 40.1095 20.362C40.1095 15.3422 36.0013 11.2729 30.9336 11.2729C25.866 11.2729 21.7578 15.3422 21.7578 20.362C21.7578 25.3817 25.866 29.451 30.9336 29.451Z" fill="#EFD566"/>
<path d="M26.8423 0.353382L26.1379 0.42751L25.7858 0.462394L25.4336 0.506871L24.7363 0.594081L24.0425 0.697861C23.811 0.729257 23.5821 0.772861 23.3523 0.812106C23.1225 0.85135 22.8944 0.887978 22.6673 0.93856C22.4401 0.989142 22.213 1.03187 21.9867 1.07635L21.3141 1.23595C20.4195 1.46008 19.5365 1.69903 18.6798 2.00252C17.8269 2.29762 16.9907 2.63824 16.175 3.02288C15.3695 3.39916 14.5892 3.8265 13.8392 4.30225C13.0974 4.76995 12.3857 5.28317 11.7086 5.83889C10.3749 6.94002 9.19116 8.20788 8.18686 9.61072C4.21084 15.1895 3.28111 22.6765 5.40206 29.0315C5.66567 29.8223 5.98185 30.5949 6.34852 31.3443C6.70965 32.0922 7.12391 32.8138 7.58817 33.5036C8.53001 34.904 9.63884 36.1868 10.8907 37.3243C13.4069 39.6136 16.4699 41.3595 19.7962 42.2839C21.469 42.7527 23.1954 43.0074 24.9335 43.0418C25.8121 43.0585 26.6909 43.0186 27.5642 42.9223C28.4486 42.8287 29.3259 42.6784 30.1906 42.4723C31.0695 42.2664 31.9353 42.009 32.7834 41.7014C33.6427 41.3918 34.4855 41.039 35.3085 40.6444C36.969 39.8543 38.5582 38.8758 40.1156 37.8109C38.881 39.2565 37.4818 40.5558 35.9459 41.6831C35.1663 42.2558 34.3515 42.7801 33.5063 43.2528C32.6483 43.7292 31.7598 44.1496 30.8465 44.5113C27.091 45.9912 22.9869 46.3779 19.017 45.6258C18.0178 45.4397 17.0325 45.1871 16.0676 44.8697C15.1027 44.5491 14.1593 44.1681 13.2432 43.729C12.7836 43.5101 12.3346 43.2729 11.8891 43.0313C11.4436 42.7898 11.0086 42.5194 10.5843 42.2421C9.72876 41.6894 8.90949 41.0835 8.13139 40.4281C7.34999 39.77 6.61076 39.0642 5.91799 38.315C5.22345 37.5584 4.57966 36.7575 3.99073 35.9176C3.84282 35.7074 3.70195 35.4912 3.5602 35.2757C3.41845 35.0603 3.28199 34.8397 3.15256 34.6164L2.95623 34.2815L2.76782 33.9414C2.63927 33.7147 2.52746 33.4836 2.4086 33.2542C1.95145 32.3323 1.55731 31.381 1.22883 30.4068C0.905458 29.4376 0.644907 28.449 0.448766 27.4469C-0.130644 24.4525 -0.149148 21.3781 0.394178 18.3771C0.750637 16.3843 1.36003 14.4442 2.20786 12.6029C3.05567 10.7631 4.15314 9.04669 5.46986 7.50111C6.77933 5.96632 8.30839 4.62949 10.0085 3.53306C11.6791 2.45304 13.4943 1.61024 15.4011 1.02926C17.2655 0.463349 19.1938 0.129386 21.1415 0.0350648C23.0478 -0.0626711 24.9592 0.0440555 26.8423 0.353382Z" fill="#224C8B"/>
<path d="M28.7337 4.04501C27.9818 4.15053 27.237 4.24472 26.508 4.386C26.3249 4.41652 26.1426 4.45577 25.9613 4.49153C25.7799 4.52728 25.5985 4.56129 25.4189 4.60664C25.2393 4.65199 25.0597 4.69385 24.881 4.72961L24.3483 4.8674C22.956 5.23123 21.6049 5.73501 20.3159 6.3709C19.0699 6.98627 17.9051 7.75134 16.8479 8.64882C15.8218 9.52346 14.9139 10.5256 14.1468 11.6305C12.6298 13.823 11.7001 16.3704 11.3567 18.9867C11.0133 21.603 11.2493 24.2925 12.0742 26.7484C12.2786 27.3584 12.5233 27.9545 12.8068 28.5327C12.9423 28.824 13.1017 29.0987 13.254 29.3795C13.3262 29.5217 13.4195 29.6533 13.5023 29.7903C13.5851 29.9272 13.6696 30.065 13.7594 30.1984C14.49 31.2828 15.3437 32.2806 16.3038 33.1723C17.2825 34.0697 18.3585 34.857 19.5121 35.52L19.7287 35.6464C19.8009 35.6883 19.8757 35.724 19.9497 35.7633L20.3899 35.9953C20.5369 36.0772 20.691 36.1392 20.8424 36.2098L21.2994 36.4191C21.4535 36.4836 21.6102 36.5429 21.7651 36.6049L21.9993 36.6982C22.0768 36.7296 22.1543 36.7618 22.2344 36.7854L22.7116 36.945L22.9502 37.0269C23.0303 37.0531 23.1122 37.0723 23.1923 37.0958C24.4934 37.475 25.8369 37.6926 27.1921 37.7438C28.5814 37.7931 29.9714 37.6706 31.3301 37.3793C31.5062 37.3522 31.6735 37.3017 31.8452 37.2598L32.3611 37.1299C32.5372 37.0915 32.7027 37.0322 32.8726 36.9781C33.0425 36.924 33.2125 36.87 33.3842 36.8168C33.4722 36.7897 33.5602 36.7662 33.6412 36.7357L33.893 36.6406L34.3993 36.4479L34.6537 36.3519C34.7418 36.3205 34.8193 36.2796 34.9029 36.2447L35.4021 36.0249C36.7504 35.4028 38.0526 34.6871 39.2989 33.883C38.3427 35.0672 37.2494 36.1358 36.0413 37.0671C35.7314 37.2964 35.4312 37.5458 35.1001 37.7473L34.6097 38.0656L34.3632 38.2252C34.2804 38.2758 34.1941 38.322 34.1087 38.3708C33.9388 38.4677 33.768 38.5636 33.5946 38.6578C33.4211 38.752 33.2512 38.8505 33.0707 38.9299L32.5337 39.1819C32.3576 39.2648 32.1762 39.3563 31.9896 39.4243C30.5001 40.0418 28.9285 40.443 27.3233 40.6156C25.6891 40.7886 24.0384 40.7299 22.421 40.4412C22.3198 40.4238 22.2168 40.4107 22.1164 40.3889L21.8144 40.3226L21.2113 40.1874C21.1092 40.1665 21.0106 40.1369 20.912 40.1089L20.6144 40.0217C20.4163 39.9642 20.2173 39.9101 20.0201 39.8473L19.4355 39.6432C19.2418 39.5726 19.0446 39.5098 18.8553 39.427L18.283 39.1898C18.1888 39.1488 18.0911 39.113 17.9986 39.0677L17.7195 38.9334L17.1622 38.663C16.9773 38.5714 16.7986 38.4668 16.6173 38.3691C16.4359 38.2714 16.2528 38.1729 16.0775 38.0647L15.5493 37.736L15.2852 37.5703C15.1971 37.5145 15.1152 37.4534 15.0298 37.3958L14.5218 37.0392L14.3959 36.9519L14.2735 36.856L14.0297 36.6642C13.8668 36.536 13.703 36.4095 13.5428 36.2787C12.2615 35.2063 11.1247 33.9753 10.1602 32.6159C10.0369 32.4414 9.92774 32.267 9.80801 32.0926C9.68827 31.9182 9.57381 31.7438 9.47168 31.5571C9.26126 31.19 9.04555 30.8237 8.86066 30.4461C8.48699 29.6944 8.16519 28.9185 7.89747 28.1237C7.63423 27.3342 7.42249 26.5287 7.26356 25.7123C6.79558 23.2765 6.78722 20.7758 7.23891 18.337C7.53608 16.7184 8.04053 15.1441 8.74005 13.6521C9.43923 12.1614 10.3425 10.7733 11.4245 9.52703C13.5659 7.06863 16.3834 5.28079 19.5332 4.38164C21.0411 3.95102 22.5982 3.7119 24.1669 3.67001C25.6986 3.62366 27.2307 3.74947 28.7337 4.04501Z" fill="#224C8B"/>
<path d="M25.1132 9.14824C24.3735 9.53134 23.68 9.99622 23.0459 10.534C22.4473 11.0456 21.8982 11.6114 21.4057 12.2241C20.4617 13.4036 19.7118 14.7234 19.1835 16.1346C18.6754 17.4758 18.3882 18.8892 18.333 20.3207C18.2844 21.704 18.4792 23.0851 18.9088 24.4021L18.9916 24.6481L19.0796 24.8914C19.1087 24.9725 19.1404 25.0536 19.1729 25.1338C19.2055 25.2141 19.2346 25.296 19.2707 25.3754L19.3746 25.6152L19.4855 25.8524C19.5207 25.9318 19.5594 26.0103 19.5991 26.0888C19.6387 26.1673 19.6739 26.2458 19.717 26.326C20.0433 26.9584 20.4134 27.5678 20.8246 28.1495C21.0289 28.4365 21.2419 28.7164 21.4691 28.9824C21.6962 29.2484 21.9313 29.5057 22.1734 29.7586C22.6744 30.2605 23.2205 30.7162 23.8049 31.1199C24.9758 31.9371 26.344 32.558 27.8548 32.9784C28.6316 33.1918 29.4207 33.3581 30.2179 33.4763C31.0358 33.5984 31.8784 33.6769 32.7509 33.7528C31.9755 34.1688 31.1542 34.4948 30.3033 34.7243C29.4347 34.9688 28.5416 35.1182 27.64 35.1699C25.7461 35.2851 23.8517 34.953 22.1127 34.201C21.219 33.812 20.3755 33.3187 19.5999 32.7316C19.2124 32.4371 18.8415 32.1218 18.4888 31.7871C18.1384 31.4526 17.8061 31.1001 17.4931 30.731C16.8764 29.9993 16.3319 29.2108 15.8669 28.3763C15.6306 27.9557 15.4167 27.5231 15.226 27.0804C14.248 24.8375 13.9009 22.3742 14.2214 19.9518C14.4796 18.0598 15.1375 16.243 16.1522 14.6198C16.6483 13.8286 17.226 13.0907 17.8761 12.4177C18.519 11.7544 19.2359 11.1655 20.0129 10.6622C20.777 10.1636 21.6064 9.77102 22.4781 9.49533C23.3269 9.21771 24.2206 9.09998 25.1132 9.14824Z" fill="#224C8B"/>
<path d="M54.4407 7.85782C54.3113 8.75532 53.852 9.57392 53.1509 10.1567C52.4272 10.7724 51.5661 11.0767 50.5589 11.0767C50.0389 11.0859 49.5227 10.9869 49.0438 10.786C48.5648 10.5852 48.1338 10.287 47.7785 9.91075C47.0225 9.13516 46.6445 8.19387 46.6445 7.08689C46.6445 5.96973 47.0222 5.02786 47.7732 4.25256C48.5242 3.47726 49.4522 3.0918 50.5589 3.0918C51.5635 3.0918 52.4272 3.40226 53.1562 4.02843C53.8583 4.61663 54.3159 5.4414 54.4407 6.34386H52.6121C52.3911 5.44036 51.6621 4.911 50.566 4.911C50.2863 4.90308 50.0082 4.95429 49.7501 5.06121C49.492 5.16813 49.2599 5.3283 49.0692 5.53106C48.6757 5.94792 48.4811 6.47206 48.4811 7.10869C48.4811 7.74532 48.681 8.25899 49.0745 8.67847C49.2643 8.88267 49.4962 9.04416 49.7544 9.15203C50.0126 9.2599 50.2911 9.31164 50.5712 9.30376C51.6515 9.30376 52.3805 8.7369 52.6174 7.86044L54.4407 7.85782Z" fill="#224C8B"/>
<path d="M55.2645 8.18387C55.2556 7.80503 55.3231 7.42823 55.4631 7.07556C55.6031 6.72289 55.8127 6.40145 56.0797 6.13008C56.3355 5.85744 56.6468 5.64162 56.993 5.49686C57.3391 5.35209 57.7124 5.28168 58.088 5.29025C58.4644 5.28274 58.8382 5.35361 59.1853 5.49828C59.5323 5.64295 59.8447 5.8582 60.1024 6.13008C60.6255 6.68804 60.9166 7.42101 60.9176 8.18241C60.9186 8.94381 60.6293 9.67752 60.1077 10.2368C59.8454 10.5025 59.5321 10.7135 59.1862 10.8577C58.8404 11.0018 58.4689 11.076 58.0937 11.076C57.7185 11.076 57.3471 11.0018 57.0013 10.8577C56.6554 10.7135 56.3421 10.5025 56.0797 10.2368C55.8127 9.96564 55.603 9.64436 55.463 9.29182C55.323 8.93929 55.2555 8.5626 55.2645 8.18387ZM57.2014 9.14318C57.3166 9.26292 57.4551 9.35833 57.6084 9.42368C57.7618 9.48904 57.927 9.52298 58.0939 9.52347C58.2609 9.52396 58.4262 9.49098 58.58 9.42653C58.7338 9.36207 58.8728 9.26747 58.9887 9.14841C59.1089 9.0196 59.2023 8.86856 59.2635 8.70395C59.3247 8.53933 59.3525 8.36438 59.3453 8.18911C59.3453 7.78794 59.2264 7.46177 58.9834 7.21497C58.8666 7.09755 58.7269 7.00478 58.5728 6.94228C58.4188 6.87978 58.2536 6.84883 58.0871 6.85131C57.9213 6.84764 57.7565 6.87806 57.6032 6.94065C57.4498 7.00325 57.3112 7.09665 57.1961 7.21497C56.9531 7.46177 56.8343 7.78794 56.8343 8.18911C56.8291 8.36392 56.8589 8.53802 56.9221 8.70134C56.9853 8.86465 57.0805 9.01394 57.2023 9.14056L57.2014 9.14318Z" fill="#224C8B"/>
<path d="M65.5492 10.9325V7.94297C65.5492 7.21564 65.1706 6.84587 64.5499 6.84587C64.1097 6.84587 63.7576 7.07087 63.4934 7.51477V10.9325H61.877V5.45574H63.4917V5.93714C63.8914 5.50109 64.3606 5.29004 64.9065 5.29004C65.7652 5.29004 66.4129 5.57871 66.8496 6.15604C67.3521 5.57871 67.9569 5.29004 68.6642 5.29004C70.2243 5.29004 70.9964 6.3008 70.9964 8.0607V10.9325H69.3069V8.0607C69.3069 7.20953 68.9882 6.84587 68.3129 6.84587C67.8727 6.84587 67.5205 7.0761 67.2388 7.53657V10.9325H65.5492Z" fill="#224C8B"/>
<path d="M75.9448 10.9325V7.94297C75.9448 7.21564 75.5671 6.84587 74.9464 6.84587C74.5062 6.84587 74.154 7.07087 73.8899 7.51477V10.9325H72.2734V5.45574H73.8881V5.93714C74.287 5.50109 74.7571 5.29004 75.3021 5.29004C76.1608 5.29004 76.8088 5.57871 77.2461 6.15604C77.7479 5.57871 78.3525 5.29004 79.0598 5.29004C80.6207 5.29004 81.3929 6.3008 81.3929 8.0607V10.9325H79.7025V8.0607C79.7025 7.20953 79.3837 6.84587 78.7093 6.84587C78.2691 6.84587 77.917 7.0761 77.6352 7.53657V10.9325H75.9448Z" fill="#224C8B"/>
<path d="M82.364 8.18387C82.3553 7.80504 82.4229 7.4283 82.5629 7.07566C82.7029 6.72302 82.9125 6.40156 83.1793 6.13007C83.4352 5.85747 83.7464 5.64169 84.0926 5.49693C84.4387 5.35216 84.8119 5.28172 85.1876 5.29024C85.564 5.28273 85.9378 5.3536 86.2848 5.49827C86.6318 5.64295 86.9443 5.85819 87.202 6.13007C87.725 6.68803 88.0162 7.421 88.0171 8.1824C88.0181 8.9438 87.7289 9.67751 87.2073 10.2368C86.9449 10.5025 86.6316 10.7135 86.2858 10.8577C85.9399 11.0018 85.5685 11.076 85.1933 11.076C84.8181 11.076 84.4467 11.0018 84.1008 10.8577C83.755 10.7135 83.4417 10.5025 83.1793 10.2368C82.9124 9.96552 82.7028 9.64422 82.5628 9.29171C82.4228 8.9392 82.3552 8.56257 82.364 8.18387ZM84.301 9.14317C84.4124 9.26443 84.5484 9.36098 84.7002 9.42651C84.8519 9.49204 85.0159 9.52506 85.1814 9.52341C85.35 9.52792 85.5175 9.49681 85.673 9.43215C85.8285 9.36749 85.9682 9.27076 86.083 9.14841C86.2024 9.01925 86.295 8.86805 86.3554 8.70345C86.4158 8.53885 86.4429 8.36407 86.4352 8.1891C86.4352 7.78793 86.3163 7.46177 86.0733 7.21496C85.9564 7.09754 85.8168 7.00478 85.6627 6.94227C85.5087 6.87977 85.3435 6.84883 85.177 6.8513C85.0113 6.84765 84.8467 6.87808 84.6935 6.94067C84.5403 7.00327 84.4018 7.09667 84.2869 7.21496C84.0439 7.46177 83.925 7.78793 83.925 8.1891C83.9211 8.36458 83.9525 8.53908 84.0174 8.70243C84.0822 8.86578 84.1792 9.01471 84.3028 9.14056L84.301 9.14317Z" fill="#224C8B"/>
<path d="M93.0118 10.9328V8.06093C93.0118 7.25336 92.6332 6.84609 91.8725 6.84609C91.3865 6.84609 90.9868 7.07633 90.6681 7.5368V10.9328H88.9785V5.45596H90.6681V5.94521C90.8689 5.73576 91.111 5.56933 91.3793 5.45623C91.6476 5.34313 91.9366 5.28575 92.2282 5.28764C93.0206 5.28764 93.6369 5.53357 94.0648 6.02021C94.4926 6.50684 94.7066 7.19144 94.7066 8.05832V10.9302L93.0118 10.9328Z" fill="#224C8B"/>
<path d="M97.3814 10.9329L95.3027 5.45612H96.9174L98.0136 8.72911L99.2066 5.45612H100.475L101.674 8.73608L102.764 5.45264H104.379L102.3 10.9294H101.194L99.8387 7.20642L98.4881 10.9294L97.3814 10.9329Z" fill="#224C8B"/>
<path d="M109.632 10.0762C109.374 10.3802 109.058 10.6312 108.703 10.8149C108.363 10.9893 107.91 11.0765 107.353 11.0765C106.587 11.0633 105.857 10.7527 105.32 10.2116C104.783 9.67045 104.482 8.94206 104.482 8.18332C104.482 7.42459 104.783 6.6962 105.32 6.15506C105.857 5.61391 106.587 5.3033 107.353 5.29013C108.025 5.27622 108.679 5.51274 109.183 5.95293C109.697 6.39683 110.004 6.98026 110.107 7.71282H110.096V8.69655H106.003C106.091 8.99641 106.265 9.2642 106.505 9.46662C106.739 9.66993 107.042 9.77885 107.353 9.77186C107.62 9.77733 107.885 9.72845 108.132 9.62824C108.38 9.52804 108.603 9.37864 108.79 9.18929L109.632 10.0762ZM106.003 7.68056H108.692C108.652 7.38263 108.504 7.10914 108.277 6.91049C108.042 6.70759 107.734 6.60584 107.353 6.60526C106.662 6.60526 106.182 7.03869 106.003 7.68056Z" fill="#224C8B"/>
<path d="M110.723 8.17842C110.723 7.33859 110.945 6.64877 111.387 6.10283C111.83 5.5569 112.444 5.29004 113.212 5.29004C113.957 5.29004 114.486 5.58394 114.804 6.17783V5.45574H116.495V10.9325H114.804V10.1999C114.502 10.7825 113.973 11.072 113.212 11.072C112.45 11.072 111.829 10.7999 111.387 10.254C110.945 9.70808 110.723 9.01738 110.723 8.17842ZM112.66 9.13773C112.772 9.2596 112.909 9.35652 113.061 9.42207C113.214 9.48762 113.379 9.52031 113.545 9.51797C113.711 9.52073 113.875 9.48989 114.028 9.42734C114.181 9.3648 114.32 9.27188 114.435 9.1543C114.557 9.02923 114.651 8.88156 114.714 8.71987C114.777 8.55818 114.807 8.38569 114.803 8.21244C114.803 7.80081 114.685 7.46941 114.45 7.21825C114.335 7.0962 114.196 6.99968 114.04 6.93505C113.885 6.87041 113.717 6.83912 113.549 6.84324C113.383 6.84062 113.219 6.87152 113.065 6.93405C112.912 6.99658 112.774 7.08943 112.658 7.20691C112.415 7.45371 112.296 7.77988 112.296 8.18104C112.289 8.35698 112.318 8.53245 112.381 8.69718C112.444 8.86191 112.539 9.01257 112.661 9.14035L112.66 9.13773Z" fill="#224C8B"/>
<path d="M117.77 10.9324V3.26318H119.459V10.9324H117.77Z" fill="#224C8B"/>
<path d="M123.432 9.56344V10.9326H122.627C122.082 10.9326 121.709 10.8524 121.326 10.5838C120.943 10.3152 120.727 9.74396 120.727 8.89367V4.12939H122.384V5.45586H123.346V6.88958H122.384V9.06024C122.384 9.39774 122.53 9.56344 122.825 9.56344H123.432Z" fill="#224C8B"/>
<path d="M128.31 10.9324V8.0606C128.31 7.25304 127.931 6.84577 127.165 6.84577C126.68 6.84577 126.285 7.076 125.962 7.53647V10.9324H124.271V3.26318H125.962V5.94489C126.163 5.73544 126.405 5.56902 126.673 5.45592C126.942 5.34281 127.23 5.28544 127.522 5.28733C128.314 5.28733 128.931 5.53326 129.358 6.01989C129.785 6.50652 130 7.19112 130 8.05799V10.9298L128.31 10.9324Z" fill="#224C8B"/>
<path d="M54.4404 21.0015C54.31 21.8995 53.8494 22.7181 53.147 23.3003C52.4233 23.916 51.5622 24.2204 50.555 24.2204C50.035 24.2294 49.5189 24.1302 49.04 23.9294C48.5611 23.7286 48.13 23.4305 47.7746 23.0544C47.0186 22.2794 46.6406 21.3381 46.6406 20.2305C46.6406 19.1134 47.0183 18.1715 47.7693 17.3962C48.5203 16.6209 49.4483 16.2363 50.555 16.2363C51.5596 16.2363 52.4233 16.5468 53.1523 17.173C53.8557 17.7606 54.3146 18.5854 54.4404 19.4884H52.6117C52.3907 18.5849 51.6617 18.0547 50.5656 18.0547C50.2859 18.0469 50.0077 18.0983 49.7497 18.2053C49.4916 18.3124 49.2595 18.4727 49.0689 18.6756C48.6753 19.0925 48.4807 19.6166 48.4807 20.2532C48.4633 20.8309 48.6747 21.3924 49.0697 21.8178C49.2595 22.022 49.4914 22.1834 49.7496 22.2913C50.0078 22.3992 50.2863 22.4509 50.5665 22.4431C51.6467 22.4431 52.3757 21.8762 52.6126 20.9989L54.4404 21.0015Z" fill="#224C8B"/>
<path d="M59.6016 24.0773V21.2072C59.6016 20.3996 59.2239 19.9932 58.4623 19.9932C57.9763 19.9932 57.5819 20.2235 57.2588 20.6831V24.0842H55.5684V16.4106H57.2605V19.095C57.4613 18.8855 57.7034 18.719 57.9718 18.6059C58.2401 18.4928 58.529 18.4355 58.8207 18.4374C59.6131 18.4374 60.2294 18.6833 60.6564 19.17C61.0834 19.6566 61.2991 20.3412 61.2991 21.2072V24.0799L59.6016 24.0773Z" fill="#224C8B"/>
<path d="M62.25 21.3221C62.25 20.4831 62.4713 19.7916 62.9138 19.2474C63.3541 18.7075 63.9704 18.4346 64.739 18.4346C65.4838 18.4346 66.013 18.7285 66.3317 19.3224V18.6003H68.0212V24.0771H66.3317V23.3436C66.0288 23.9271 65.4997 24.221 64.739 24.221C63.9783 24.221 63.3567 23.948 62.9138 23.4029C62.471 22.8579 62.25 22.1663 62.25 21.3221ZM64.1869 22.2814C64.2991 22.4031 64.436 22.5 64.5887 22.5655C64.7413 22.631 64.9063 22.6638 65.0727 22.6616C65.2384 22.6645 65.4029 22.6337 65.5561 22.5711C65.7094 22.5086 65.8481 22.4156 65.9637 22.298C66.0848 22.1729 66.1796 22.0252 66.2427 21.8635C66.3057 21.7018 66.3356 21.5294 66.3308 21.3561C66.3308 20.9445 66.2119 20.6131 65.9742 20.3619C65.8594 20.2396 65.7196 20.143 65.5642 20.0783C65.4087 20.0137 65.2412 19.9825 65.0727 19.9869C64.9069 19.9841 64.7424 20.0149 64.5892 20.0774C64.4359 20.14 64.2973 20.2329 64.1817 20.3506C63.9387 20.5965 63.8198 20.9235 63.8198 21.3238C63.8134 21.5002 63.8426 21.6761 63.9058 21.8412C63.969 22.0062 64.0649 22.1571 64.1878 22.2849L64.1869 22.2814Z" fill="#224C8B"/>
<path d="M72.9682 24.0771V21.0875C72.9682 20.3593 72.5905 19.9904 71.969 19.9904C71.5288 19.9904 71.1766 20.2154 70.9125 20.6593V24.0771H69.2969V18.6003H70.9107V19.0817C71.3104 18.6456 71.7806 18.4346 72.3255 18.4346C73.1842 18.4346 73.8322 18.7232 74.2695 19.3006C74.7714 18.7232 75.3759 18.4346 76.0832 18.4346C77.6442 18.4346 78.4163 19.4453 78.4163 21.2044V24.0771H76.7259V21.207C76.7259 20.3567 76.4072 19.993 75.7328 19.993C75.2926 19.993 74.9404 20.2232 74.6578 20.6828V24.084L72.9682 24.0771Z" fill="#224C8B"/>
<path d="M85.476 21.3223C85.476 22.1569 85.255 22.8468 84.8122 23.3979C84.3693 23.9491 83.7557 24.2212 82.987 24.2212C82.2369 24.2212 81.7025 23.9378 81.3838 23.3761V24.0738H79.6934V16.4106H81.3847V19.2799C81.7087 18.7182 82.2431 18.4348 82.9879 18.4348C83.7601 18.4348 84.3702 18.7078 84.8131 19.2528C85.2559 19.7979 85.476 20.4938 85.476 21.3223ZM83.5488 20.3543C83.4332 20.2366 83.2945 20.1437 83.1412 20.0811C82.988 20.0186 82.8235 19.9878 82.6578 19.9906C82.4879 19.9881 82.3193 20.0197 82.1622 20.0836C82.005 20.1475 81.8626 20.2423 81.7436 20.3623C81.6245 20.4824 81.5313 20.6251 81.4696 20.7819C81.4079 20.9386 81.379 21.1062 81.3847 21.2744V21.3276C81.3781 21.5036 81.4072 21.6792 81.4703 21.844C81.5333 22.0088 81.629 22.1594 81.7518 22.2869C81.8677 22.4092 82.0084 22.5059 82.1647 22.5705C82.321 22.6352 82.4893 22.6663 82.6586 22.6619C82.8249 22.6635 82.9897 22.6305 83.1423 22.565C83.2949 22.4995 83.4319 22.4029 83.5444 22.2816C83.6661 22.1537 83.7609 22.0029 83.823 21.8382C83.8851 21.6734 83.9134 21.498 83.9062 21.3223C83.9053 20.9273 83.7865 20.5967 83.5488 20.3543Z" fill="#224C8B"/>
<path d="M91.3132 23.2207C91.0548 23.5243 90.7393 23.7751 90.3843 23.9594C90.0445 24.1338 89.5919 24.221 89.0346 24.221C88.2687 24.2078 87.5387 23.8972 87.0018 23.3561C86.4649 22.8149 86.1641 22.0866 86.1641 21.3278C86.1641 20.5691 86.4649 19.8407 87.0018 19.2996C87.5387 18.7584 88.2687 18.4478 89.0346 18.4346C89.707 18.4211 90.36 18.6575 90.865 19.0974C91.3774 19.5413 91.6856 20.1248 91.7877 20.8573H91.7736V21.8411H87.6814C87.7682 22.1412 87.9428 22.4092 88.1832 22.6111C88.4173 22.8144 88.7199 22.9234 89.0311 22.9164C89.298 22.9219 89.5633 22.8729 89.8103 22.7725C90.0574 22.6722 90.2809 22.5225 90.4671 22.3329L91.3132 23.2207ZM87.6849 20.8251H90.3737C90.3334 20.5272 90.1858 20.2537 89.9582 20.055C89.7234 19.8515 89.4155 19.7498 89.0346 19.7498C88.34 19.7498 87.8628 20.1832 87.6849 20.8251Z" fill="#224C8B"/>
<path d="M96.3679 20.0122C95.9897 20.012 95.614 20.0733 95.2559 20.1936C94.9359 20.2885 94.6422 20.455 94.3975 20.6803V24.0814H92.707V18.6047H93.9872L94.1113 19.0643C94.7162 18.6474 95.4663 18.439 96.3679 18.439V20.0122Z" fill="#224C8B"/>
<path d="M99.6336 21.3275C99.6247 20.9488 99.6922 20.5722 99.8322 20.2196C99.9722 19.8671 100.182 19.5458 100.449 19.2746C100.705 19.002 101.016 18.7862 101.362 18.6414C101.708 18.4966 102.082 18.4262 102.457 18.4348C102.833 18.4273 103.207 18.4982 103.554 18.6428C103.901 18.7875 104.213 19.0028 104.471 19.2746C104.994 19.8326 105.285 20.5655 105.286 21.3269C105.287 22.0883 104.998 22.822 104.476 23.3813C104.214 23.6469 103.9 23.8578 103.555 24.0019C103.209 24.1459 102.838 24.2201 102.462 24.2201C102.087 24.2201 101.716 24.1459 101.37 24.0019C101.025 23.8578 100.711 23.6469 100.449 23.3813C100.182 23.11 99.9721 22.7885 99.8321 22.4359C99.6921 22.0832 99.6246 21.7064 99.6336 21.3275ZM101.571 22.2868C101.686 22.4066 101.824 22.502 101.978 22.5673C102.131 22.6327 102.296 22.6666 102.463 22.6671C102.63 22.6676 102.795 22.6346 102.949 22.5702C103.103 22.5057 103.242 22.4111 103.358 22.2921C103.478 22.1632 103.571 22.0122 103.633 21.8476C103.694 21.683 103.722 21.508 103.714 21.3328C103.714 20.9325 103.596 20.6054 103.353 20.3595C103.236 20.2418 103.096 20.1489 102.942 20.0864C102.788 20.0239 102.623 19.9931 102.456 19.9958C102.29 19.992 102.126 20.0224 101.972 20.085C101.819 20.1476 101.68 20.2411 101.565 20.3595C101.322 20.6054 101.203 20.9325 101.203 21.3328C101.198 21.5077 101.228 21.682 101.291 21.8454C101.354 22.0089 101.45 22.1583 101.571 22.2851L101.571 22.2868Z" fill="#224C8B"/>
<path d="M109.733 16.2578V17.7125H108.89C108.588 17.7125 108.437 17.8782 108.437 18.2044V18.6003H109.657V20.0332H108.437V24.0771H106.739V20.0332H105.746V18.6003H106.739V18.2044C106.739 16.9049 107.382 16.2526 108.676 16.2578H109.733Z" fill="#224C8B"/>
<path d="M54.4404 34.1455C54.3111 35.0433 53.8518 35.8623 53.1505 36.4452C52.4256 37.0598 51.5605 37.3665 50.555 37.3653C50.035 37.3743 49.5189 37.2751 49.04 37.0743C48.5611 36.8735 48.13 36.5754 47.7746 36.1993C47.0186 35.4243 46.6406 34.483 46.6406 33.3755C46.6406 32.2574 47.0183 31.3164 47.7693 30.5411C48.5203 29.7658 49.4483 29.3804 50.555 29.3804C51.5596 29.3804 52.4233 29.6908 53.1523 30.3161C53.8554 30.904 54.3142 31.7287 54.4404 32.6316H52.6117C52.3907 31.7272 51.6617 31.1978 50.5656 31.1978C50.2859 31.1899 50.0076 31.2411 49.7495 31.3482C49.4914 31.4553 49.2593 31.6157 49.0689 31.8188C48.6753 32.2356 48.4807 32.7598 48.4807 33.3964C48.4627 33.9765 48.6759 34.5404 49.0741 34.9662C49.2638 35.1707 49.4955 35.3324 49.7538 35.4404C50.012 35.5485 50.2907 35.6003 50.5709 35.5923C51.6511 35.5923 52.3801 35.0255 52.617 34.1481L54.4404 34.1455Z" fill="#224C8B"/>
<path d="M55.2645 34.4716C55.2555 34.0927 55.3231 33.7159 55.4631 33.3633C55.603 33.0106 55.8127 32.6892 56.0797 32.4178C56.3356 32.1453 56.6469 31.9296 56.993 31.785C57.3392 31.6404 57.7124 31.5701 58.088 31.5789C58.4643 31.5712 58.8381 31.6419 59.1852 31.7864C59.5322 31.9309 59.8447 32.146 60.1024 32.4178C60.6255 32.9759 60.9167 33.709 60.9176 34.4706C60.9186 35.2321 60.6294 35.966 60.1077 36.5254C59.8453 36.791 59.532 37.0021 59.1862 37.1462C58.8403 37.2904 58.4689 37.3646 58.0937 37.3646C57.7185 37.3646 57.3471 37.2904 57.0012 37.1462C56.6554 37.0021 56.3421 36.791 56.0797 36.5254C55.8127 36.254 55.603 35.9326 55.4631 35.5799C55.3231 35.2272 55.2555 34.8504 55.2645 34.4716ZM57.2014 35.4309C57.3137 35.5524 57.4506 35.6491 57.6033 35.7145C57.7559 35.7798 57.9208 35.8125 58.0871 35.8103C58.2556 35.8147 58.423 35.7836 58.5784 35.7191C58.7339 35.6546 58.8737 35.5581 58.9887 35.4361C59.1088 35.3073 59.2022 35.1563 59.2634 34.9916C59.3246 34.827 59.3524 34.6521 59.3452 34.4768C59.3452 34.0757 59.2264 33.7495 58.9834 33.5036C58.8668 33.3858 58.7272 33.2928 58.5731 33.2303C58.419 33.1678 58.2536 33.137 58.0871 33.1399C57.9213 33.1361 57.7564 33.1664 57.603 33.229C57.4497 33.2916 57.3111 33.3851 57.1961 33.5036C56.9531 33.7495 56.8343 34.0757 56.8343 34.4768C56.829 34.6518 56.8588 34.826 56.922 34.9895C56.9852 35.153 57.0804 35.3024 57.2023 35.4292L57.2014 35.4309Z" fill="#224C8B"/>
<path d="M65.5492 37.2202V34.2307C65.5492 33.5033 65.1706 33.1344 64.5499 33.1344C64.1097 33.1344 63.7576 33.3594 63.4934 33.8033V37.2202H61.877V31.7443H63.4917V32.2257C63.8914 31.7897 64.3606 31.5786 64.9065 31.5786C65.7652 31.5786 66.4129 31.8673 66.8496 32.4446C67.3521 31.8673 67.9569 31.5786 68.6642 31.5786C70.2243 31.5786 70.9964 32.5894 70.9964 34.3484V37.2202H69.3069V34.3484C69.3069 33.4981 68.9882 33.1344 68.3129 33.1344C67.8727 33.1344 67.5205 33.3647 67.2388 33.8243V37.2202H65.5492Z" fill="#224C8B"/>
<path d="M75.9448 37.2202V34.2307C75.9448 33.5033 75.5671 33.1344 74.9464 33.1344C74.5062 33.1344 74.154 33.3594 73.8899 33.8033V37.2202H72.2734V31.7443H73.8881V32.2257C74.287 31.7897 74.7571 31.5786 75.3021 31.5786C76.1608 31.5786 76.8088 31.8673 77.2461 32.4446C77.7479 31.8673 78.3525 31.5786 79.0598 31.5786C80.6207 31.5786 81.3929 32.5894 81.3929 34.3484V37.2202H79.7025V34.3484C79.7025 33.4981 79.3837 33.1344 78.7093 33.1344C78.2691 33.1344 77.917 33.3647 77.6352 33.8243V37.2202H75.9448Z" fill="#224C8B"/>
<path d="M87.5475 36.3652C87.2896 36.6689 86.974 36.9196 86.6187 37.103C86.2788 37.2774 85.8263 37.3646 85.269 37.3646C84.5031 37.3514 83.7731 37.0408 83.2362 36.4997C82.6993 35.9585 82.3984 35.2301 82.3984 34.4714C82.3984 33.7127 82.6993 32.9843 83.2362 32.4431C83.7731 31.902 84.5031 31.5914 85.269 31.5782C85.9414 31.5643 86.5946 31.8008 87.0994 32.241C87.6127 32.6849 87.92 33.2675 88.023 34.0009H88.0124V34.9864H83.9193C84.0068 35.2862 84.1813 35.554 84.4211 35.7565C84.6552 35.9598 84.9578 36.0687 85.269 36.0617C85.5361 36.0672 85.8015 36.0183 86.0486 35.9179C86.2958 35.8175 86.5195 35.6679 86.7059 35.4783L87.5475 36.3652ZM83.9193 33.9695H86.6081C86.568 33.6715 86.4204 33.398 86.1926 33.1995C85.9578 32.996 85.6499 32.8942 85.269 32.8942C84.5743 32.8933 84.0945 33.3294 83.9158 33.9695H83.9193Z" fill="#224C8B"/>
<path d="M92.5974 33.1545C92.2193 33.1543 91.8436 33.2156 91.4855 33.3359C91.1654 33.4308 90.8717 33.5973 90.627 33.8225V37.2185H88.9375V31.7443H90.2168L90.3409 32.2039C90.9458 31.787 91.6959 31.5786 92.5974 31.5786V33.1545Z" fill="#224C8B"/>
<path d="M98.7272 35.1298C98.5928 35.8275 98.2796 36.3728 97.7878 36.7659C97.2965 37.167 96.6916 37.365 95.9741 37.365C95.2082 37.3518 94.4782 37.0412 93.9413 36.5001C93.4044 35.9589 93.1035 35.2305 93.1035 34.4718C93.1035 33.7131 93.4044 32.9847 93.9413 32.4435C94.4782 31.9024 95.2082 31.5918 95.9741 31.5786C96.6916 31.5786 97.2947 31.7766 97.7983 32.1664C98.3019 32.5562 98.6083 33.1135 98.7272 33.8138H97.248C97.1751 33.5935 97.0257 33.4059 96.8263 33.2844C96.5719 33.1254 96.2746 33.047 95.9741 33.0594C95.7964 33.0554 95.6198 33.0886 95.456 33.1568C95.2921 33.2251 95.1446 33.3268 95.0232 33.4554C94.7794 33.7378 94.6454 34.0972 94.6454 34.4688C94.6454 34.8403 94.7794 35.1997 95.0232 35.4821C95.142 35.6151 95.2886 35.7208 95.4528 35.7919C95.617 35.863 95.7949 35.8977 95.9741 35.8938C96.6485 35.8938 97.0693 35.6374 97.248 35.1298H98.7272Z" fill="#224C8B"/>
<path d="M104.567 36.3651C104.309 36.6687 103.993 36.9193 103.638 37.1029C103.298 37.2774 102.846 37.3646 102.289 37.3646C101.523 37.3514 100.793 37.0408 100.256 36.4997C99.7188 35.9585 99.418 35.2301 99.418 34.4714C99.418 33.7126 99.7188 32.9843 100.256 32.4431C100.793 31.902 101.523 31.5914 102.289 31.5782C102.961 31.5646 103.614 31.8011 104.119 32.241C104.631 32.6849 104.939 33.2675 105.042 34.0009H105.031V34.9864H100.939C101.026 35.2865 101.2 35.5545 101.441 35.7564C101.675 35.9597 101.977 36.0687 102.289 36.0617C102.555 36.0672 102.821 36.0182 103.068 35.9178C103.315 35.8175 103.538 35.6678 103.725 35.4782L104.567 36.3651ZM100.939 33.9695H103.628C103.587 33.6714 103.439 33.3979 103.211 33.1994C102.979 32.9959 102.672 32.8942 102.289 32.8942C101.597 32.8933 101.117 33.3294 100.939 33.9695Z" fill="#224C8B"/>
</svg>